<svg width="44" height="44" viewBox="0 0 44 44" fill="none" xmlns="http://www.w3.org/2000/svg">
<circle cx="22" cy="22" r="21.5" fill="white" stroke="#DFDFDF"/>
<path d="M31.1992 28.9998V22.7735C31.1992 19.7135 30.5405 17.376 26.9705 17.376C25.2492 17.376 24.1017 18.311 23.6342 19.2035H23.5917V17.6522H20.2129V28.9998H23.7404V23.3685C23.7404 21.881 24.0167 20.4573 25.8442 20.4573C27.6505 20.4573 27.6717 22.136 27.6717 23.4535V28.9786H31.1992V28.9998Z" fill="#242526"/>
<path d="M14.4766 17.6523H18.0041V28.9999H14.4766V17.6523Z" fill="#242526"/>
<path d="M16.2392 12C15.113 12 14.1992 12.9138 14.1992 14.04C14.1992 15.1663 15.113 16.1013 16.2392 16.1013C17.3655 16.1013 18.2793 15.1663 18.2793 14.04C18.2793 12.9138 17.3655 12 16.2392 12V12Z" fill="#242526"/>
</svg>
